<mxfile host="app.diagrams.net" modified="2021-09-26T08:00:15.621Z" agent="5.0 (Macintosh; Intel Mac OS X 10_15_7) AppleWebKit/537.36 (KHTML, like Gecko) Chrome/93.0.4577.82 Safari/537.36" etag="HVqU9txfQCkXd3JZR9M5" version="15.1.0" type="github">
  <diagram id="izzyhYgoDfgr7Xsf6XAO" name="第 2 页">
    <mxGraphModel dx="1577" dy="980" grid="1" gridSize="10" guides="1" tooltips="1" connect="1" arrows="1" fold="1" page="1" pageScale="1" pageWidth="1000000" pageHeight="1000000" math="0" shadow="0">
      <root>
        <mxCell id="bqe97n8znEZDnZ-8C_Wv-0" />
        <mxCell id="bqe97n8znEZDnZ-8C_Wv-1" parent="bqe97n8znEZDnZ-8C_Wv-0" />
        <mxCell id="bqe97n8znEZDnZ-8C_Wv-2" value="FFmpegPlayer" style="swimlane;fontStyle=1;align=center;verticalAlign=top;childLayout=stackLayout;horizontal=1;startSize=26;horizontalStack=0;resizeParent=1;resizeParentMax=0;resizeLast=0;collapsible=1;marginBottom=0;" vertex="1" parent="bqe97n8znEZDnZ-8C_Wv-1">
          <mxGeometry x="1030" y="70" width="350" height="480" as="geometry" />
        </mxCell>
        <mxCell id="bqe97n8znEZDnZ-8C_Wv-3" value="    const char *url;&#xa;    bool isPlaying;&#xa;    JavaVM *javaVM;&#xa;    VideoChannel *videoChannel = NULL;&#xa;    AudioChannel *audioChannel = NULL;&#xa;    AVFormatContext *formatContext;&#xa;    JavaCallHelper *javaCallHelper;&#xa;    pthread_t prepare_pid;&#xa;    pthread_t play_pid;&#xa;    pthread_t release_pid;&#xa;    JNIEnv *env;&#xa;    bool isPause = false;" style="text;strokeColor=none;fillColor=none;align=left;verticalAlign=top;spacingLeft=4;spacingRight=4;overflow=hidden;rotatable=0;points=[[0,0.5],[1,0.5]];portConstraint=eastwest;" vertex="1" parent="bqe97n8znEZDnZ-8C_Wv-2">
          <mxGeometry y="26" width="350" height="194" as="geometry" />
        </mxCell>
        <mxCell id="bqe97n8znEZDnZ-8C_Wv-4" value="" style="line;strokeWidth=1;fillColor=none;align=left;verticalAlign=middle;spacingTop=-1;spacingLeft=3;spacingRight=3;rotatable=0;labelPosition=right;points=[];portConstraint=eastwest;" vertex="1" parent="bqe97n8znEZDnZ-8C_Wv-2">
          <mxGeometry y="220" width="350" height="8" as="geometry" />
        </mxCell>
        <mxCell id="bqe97n8znEZDnZ-8C_Wv-5" value="void setPath(const char *path);&#xa;void setSurface(jobject surface);&#xa;void prepare();&#xa;void prepareFFmpeg();&#xa;void start();&#xa;void play();&#xa;void stop();&#xa;void seek(int time);&#xa;void pause();&#xa;void resume();&#xa;void release();&#xa;void speed(int speed);&#xa;void error(int code, char *message);&#xa;FFmpegPlayer(JavaVM *javaVM, JNIEnv *env, jobject jclass);&#xa;~FFmpegPlayer();&#xa;void audioTimeAdd(int time);" style="text;strokeColor=none;fillColor=none;align=left;verticalAlign=top;spacingLeft=4;spacingRight=4;overflow=hidden;rotatable=0;points=[[0,0.5],[1,0.5]];portConstraint=eastwest;" vertex="1" parent="bqe97n8znEZDnZ-8C_Wv-2">
          <mxGeometry y="228" width="350" height="252" as="geometry" />
        </mxCell>
        <mxCell id="bqe97n8znEZDnZ-8C_Wv-7" value="LockQueue" style="swimlane;fontStyle=1;align=center;verticalAlign=top;childLayout=stackLayout;horizontal=1;startSize=26;horizontalStack=0;resizeParent=1;resizeParentMax=0;resizeLast=0;collapsible=1;marginBottom=0;" vertex="1" parent="bqe97n8znEZDnZ-8C_Wv-1">
          <mxGeometry x="1095" y="746" width="220" height="348" as="geometry" />
        </mxCell>
        <mxCell id="bqe97n8znEZDnZ-8C_Wv-8" value="typedef void (*ReleaseData)(T &amp;);&#xa;//互斥锁&#xa;pthread_mutex_t _mutex;&#xa;//条件变量&#xa;pthread_cond_t _cond;&#xa;//队列&#xa;queue&lt;T&gt; _queue;&#xa;//释放数据&#xa;ReleaseData releaseData;&#xa;//是否在工作&#xa;int work;" style="text;strokeColor=none;fillColor=none;align=left;verticalAlign=top;spacingLeft=4;spacingRight=4;overflow=hidden;rotatable=0;points=[[0,0.5],[1,0.5]];portConstraint=eastwest;" vertex="1" parent="bqe97n8znEZDnZ-8C_Wv-7">
          <mxGeometry y="26" width="220" height="164" as="geometry" />
        </mxCell>
        <mxCell id="bqe97n8znEZDnZ-8C_Wv-9" value="" style="line;strokeWidth=1;fillColor=none;align=left;verticalAlign=middle;spacingTop=-1;spacingLeft=3;spacingRight=3;rotatable=0;labelPosition=right;points=[];portConstraint=eastwest;" vertex="1" parent="bqe97n8znEZDnZ-8C_Wv-7">
          <mxGeometry y="190" width="220" height="8" as="geometry" />
        </mxCell>
        <mxCell id="bqe97n8znEZDnZ-8C_Wv-10" value="int size()&#xa;bool empty()&#xa;int pop(T &amp;data)&#xa;void push(T data)&#xa;void destory()&#xa;void clear()&#xa;void setReleaseData(ReleaseData r)&#xa;void setWork(bool isWork)&#xa;LockQueue()&#xa;~LockQueue()" style="text;strokeColor=none;fillColor=none;align=left;verticalAlign=top;spacingLeft=4;spacingRight=4;overflow=hidden;rotatable=0;points=[[0,0.5],[1,0.5]];portConstraint=eastwest;" vertex="1" parent="bqe97n8znEZDnZ-8C_Wv-7">
          <mxGeometry y="198" width="220" height="150" as="geometry" />
        </mxCell>
        <mxCell id="bqe97n8znEZDnZ-8C_Wv-11" value="BaseChannel" style="swimlane;fontStyle=1;align=center;verticalAlign=top;childLayout=stackLayout;horizontal=1;startSize=26;horizontalStack=0;resizeParent=1;resizeParentMax=0;resizeLast=0;collapsible=1;marginBottom=0;" vertex="1" parent="bqe97n8znEZDnZ-8C_Wv-1">
          <mxGeometry x="460" y="240" width="290" height="330" as="geometry" />
        </mxCell>
        <mxCell id="bqe97n8znEZDnZ-8C_Wv-12" value="JavaCallHelper *javaCallHelper;&#xa;AVRational time_base;&#xa;double clock = 0;&#xa;AVCodecContext *avCodecContext;&#xa;LockQueue&lt;AVPacket *&gt; package_queue;&#xa;LockQueue&lt;AVFrame *&gt; frame_queue;&#xa;volatile int channelId;&#xa;volatile bool isPlaying;" style="text;strokeColor=none;fillColor=none;align=left;verticalAlign=top;spacingLeft=4;spacingRight=4;overflow=hidden;rotatable=0;points=[[0,0.5],[1,0.5]];portConstraint=eastwest;" vertex="1" parent="bqe97n8znEZDnZ-8C_Wv-11">
          <mxGeometry y="26" width="290" height="124" as="geometry" />
        </mxCell>
        <mxCell id="bqe97n8znEZDnZ-8C_Wv-13" value="" style="line;strokeWidth=1;fillColor=none;align=left;verticalAlign=middle;spacingTop=-1;spacingLeft=3;spacingRight=3;rotatable=0;labelPosition=right;points=[];portConstraint=eastwest;" vertex="1" parent="bqe97n8znEZDnZ-8C_Wv-11">
          <mxGeometry y="150" width="290" height="8" as="geometry" />
        </mxCell>
        <mxCell id="bqe97n8znEZDnZ-8C_Wv-14" value="BaseChannel();&#xa;virtual ~BaseChannel();&#xa;static void releaseAvPacket(AVPacket *&amp;packet)&#xa;static void releaseAvFrame(AVFrame *&amp;frame)&#xa;virtual void play() = 0;&#xa;virtual void stop() = 0;&#xa;virtual void seek(int time) = 0;&#xa;virtual void speed(int s) = 0;&#xa;virtual void pause() = 0;&#xa;virtual void resume() = 0;&#xa;virtual void release();" style="text;strokeColor=none;fillColor=none;align=left;verticalAlign=top;spacingLeft=4;spacingRight=4;overflow=hidden;rotatable=0;points=[[0,0.5],[1,0.5]];portConstraint=eastwest;" vertex="1" parent="bqe97n8znEZDnZ-8C_Wv-11">
          <mxGeometry y="158" width="290" height="172" as="geometry" />
        </mxCell>
        <mxCell id="bqe97n8znEZDnZ-8C_Wv-15" value="AudioChannel" style="swimlane;fontStyle=1;align=center;verticalAlign=top;childLayout=stackLayout;horizontal=1;startSize=26;horizontalStack=0;resizeParent=1;resizeParentMax=0;resizeLast=0;collapsible=1;marginBottom=0;" vertex="1" parent="bqe97n8znEZDnZ-8C_Wv-1">
          <mxGeometry x="680" y="740" width="310" height="360" as="geometry" />
        </mxCell>
        <mxCell id="bqe97n8znEZDnZ-8C_Wv-16" value="pthread_t play_pid;&#xa;    pthread_t decode_pid;&#xa;    SwrContext *swrContext = NULL;&#xa;    int out_channels;&#xa;    int out_samplesize;&#xa;    int out_sample_rate;&#xa;    SLPlayItf playItf;&#xa;    double last_time = 0;&#xa;&#xa;    //缓冲器队列接口&#xa;    SLAndroidSimpleBufferQueueItf bqPlayerBufferQueue;&#xa;    //缓冲 buffer&#xa;    uint8_t *buffer;" style="text;strokeColor=none;fillColor=none;align=left;verticalAlign=top;spacingLeft=4;spacingRight=4;overflow=hidden;rotatable=0;points=[[0,0.5],[1,0.5]];portConstraint=eastwest;" vertex="1" parent="bqe97n8znEZDnZ-8C_Wv-15">
          <mxGeometry y="26" width="310" height="234" as="geometry" />
        </mxCell>
        <mxCell id="bqe97n8znEZDnZ-8C_Wv-17" value="" style="line;strokeWidth=1;fillColor=none;align=left;verticalAlign=middle;spacingTop=-1;spacingLeft=3;spacingRight=3;rotatable=0;labelPosition=right;points=[];portConstraint=eastwest;" vertex="1" parent="bqe97n8znEZDnZ-8C_Wv-15">
          <mxGeometry y="260" width="310" height="8" as="geometry" />
        </mxCell>
        <mxCell id="bqe97n8znEZDnZ-8C_Wv-18" value="AudioChannel();&#xa;~AudioChannel();&#xa;void decodeAudioPacket();&#xa;void init_opensl_es();&#xa;int getPackageSize();" style="text;strokeColor=none;fillColor=none;align=left;verticalAlign=top;spacingLeft=4;spacingRight=4;overflow=hidden;rotatable=0;points=[[0,0.5],[1,0.5]];portConstraint=eastwest;" vertex="1" parent="bqe97n8znEZDnZ-8C_Wv-15">
          <mxGeometry y="268" width="310" height="92" as="geometry" />
        </mxCell>
        <mxCell id="bqe97n8znEZDnZ-8C_Wv-21" value="VideoChannel" style="swimlane;fontStyle=1;align=center;verticalAlign=top;childLayout=stackLayout;horizontal=1;startSize=26;horizontalStack=0;resizeParent=1;resizeParentMax=0;resizeLast=0;collapsible=1;marginBottom=0;" vertex="1" parent="bqe97n8znEZDnZ-8C_Wv-1">
          <mxGeometry x="260" y="740" width="320" height="300" as="geometry" />
        </mxCell>
        <mxCell id="bqe97n8znEZDnZ-8C_Wv-22" value="    pthread_t play_pid;&#xa;    pthread_t decode_pid;&#xa;    RenderFrame renderFrame;&#xa;    int fastTime = 0;&#xa;    int fps;&#xa;public:&#xa;    AudioChannel *audioChannel;" style="text;strokeColor=none;fillColor=none;align=left;verticalAlign=top;spacingLeft=4;spacingRight=4;overflow=hidden;rotatable=0;points=[[0,0.5],[1,0.5]];portConstraint=eastwest;" vertex="1" parent="bqe97n8znEZDnZ-8C_Wv-21">
          <mxGeometry y="26" width="320" height="124" as="geometry" />
        </mxCell>
        <mxCell id="bqe97n8znEZDnZ-8C_Wv-23" value="" style="line;strokeWidth=1;fillColor=none;align=left;verticalAlign=middle;spacingTop=-1;spacingLeft=3;spacingRight=3;rotatable=0;labelPosition=right;points=[];portConstraint=eastwest;" vertex="1" parent="bqe97n8znEZDnZ-8C_Wv-21">
          <mxGeometry y="150" width="320" height="8" as="geometry" />
        </mxCell>
        <mxCell id="bqe97n8znEZDnZ-8C_Wv-24" value="VideoChannel();&#xa;~VideoChannel();&#xa;void decodeVideoPacket();&#xa;void render();&#xa;void setFrameRender(RenderFrame renderFrame);&#xa;void setAudioChannel(AudioChannel *audioChannel);&#xa;void setFps(int fps);&#xa;void audioTimeAdd(int time);" style="text;strokeColor=none;fillColor=none;align=left;verticalAlign=top;spacingLeft=4;spacingRight=4;overflow=hidden;rotatable=0;points=[[0,0.5],[1,0.5]];portConstraint=eastwest;" vertex="1" parent="bqe97n8znEZDnZ-8C_Wv-21">
          <mxGeometry y="158" width="320" height="142" as="geometry" />
        </mxCell>
        <mxCell id="bqe97n8znEZDnZ-8C_Wv-25" value="JavaCallHelper" style="swimlane;fontStyle=1;align=center;verticalAlign=top;childLayout=stackLayout;horizontal=1;startSize=26;horizontalStack=0;resizeParent=1;resizeParentMax=0;resizeLast=0;collapsible=1;marginBottom=0;" vertex="1" parent="bqe97n8znEZDnZ-8C_Wv-1">
          <mxGeometry x="60" y="90" width="360" height="260" as="geometry" />
        </mxCell>
        <mxCell id="bqe97n8znEZDnZ-8C_Wv-26" value="jobject playerControlclass;&#xa;JavaVM *javaVM;&#xa;JNIEnv *env;&#xa;jmethodID videoInfoID;&#xa;jmethodID statusID;&#xa;jmethodID readyID;&#xa;jmethodID errorID;" style="text;strokeColor=none;fillColor=none;align=left;verticalAlign=top;spacingLeft=4;spacingRight=4;overflow=hidden;rotatable=0;points=[[0,0.5],[1,0.5]];portConstraint=eastwest;" vertex="1" parent="bqe97n8znEZDnZ-8C_Wv-25">
          <mxGeometry y="26" width="360" height="114" as="geometry" />
        </mxCell>
        <mxCell id="bqe97n8znEZDnZ-8C_Wv-27" value="" style="line;strokeWidth=1;fillColor=none;align=left;verticalAlign=middle;spacingTop=-1;spacingLeft=3;spacingRight=3;rotatable=0;labelPosition=right;points=[];portConstraint=eastwest;" vertex="1" parent="bqe97n8znEZDnZ-8C_Wv-25">
          <mxGeometry y="140" width="360" height="8" as="geometry" />
        </mxCell>
        <mxCell id="bqe97n8znEZDnZ-8C_Wv-28" value="JavaCallHelper(JavaVM *javaVM, JNIEnv *env, jobject jclass);&#xa;~JavaCallHelper();&#xa;void call_java_videoInfo(int thread, int fps, int time);&#xa;void call_java_status(int thread, int status);&#xa;void call_java_ready(int thread, int alltime);&#xa;void call_java_error(int thread, int code, char *message);" style="text;strokeColor=none;fillColor=none;align=left;verticalAlign=top;spacingLeft=4;spacingRight=4;overflow=hidden;rotatable=0;points=[[0,0.5],[1,0.5]];portConstraint=eastwest;" vertex="1" parent="bqe97n8znEZDnZ-8C_Wv-25">
          <mxGeometry y="148" width="360" height="112" as="geometry" />
        </mxCell>
        <mxCell id="bqe97n8znEZDnZ-8C_Wv-29" value="" style="endArrow=none;html=1;edgeStyle=orthogonalEdgeStyle;exitX=0.534;exitY=1.004;exitDx=0;exitDy=0;exitPerimeter=0;entryX=0.5;entryY=0;entryDx=0;entryDy=0;" edge="1" parent="bqe97n8znEZDnZ-8C_Wv-1" source="bqe97n8znEZDnZ-8C_Wv-14" target="bqe97n8znEZDnZ-8C_Wv-15">
          <mxGeometry relative="1" as="geometry">
            <mxPoint x="590" y="590" as="sourcePoint" />
            <mxPoint x="930" y="660" as="targetPoint" />
            <Array as="points">
              <mxPoint x="615" y="640" />
              <mxPoint x="830" y="640" />
              <mxPoint x="830" y="740" />
            </Array>
          </mxGeometry>
        </mxCell>
        <mxCell id="bqe97n8znEZDnZ-8C_Wv-30" value="parent" style="edgeLabel;resizable=0;html=1;align=left;verticalAlign=bottom;" connectable="0" vertex="1" parent="bqe97n8znEZDnZ-8C_Wv-29">
          <mxGeometry x="-1" relative="1" as="geometry" />
        </mxCell>
        <mxCell id="bqe97n8znEZDnZ-8C_Wv-31" value="child" style="edgeLabel;resizable=0;html=1;align=right;verticalAlign=bottom;" connectable="0" vertex="1" parent="bqe97n8znEZDnZ-8C_Wv-29">
          <mxGeometry x="1" relative="1" as="geometry" />
        </mxCell>
        <mxCell id="bqe97n8znEZDnZ-8C_Wv-33" value="" style="endArrow=none;html=1;edgeStyle=orthogonalEdgeStyle;exitX=0.524;exitY=0.992;exitDx=0;exitDy=0;exitPerimeter=0;" edge="1" parent="bqe97n8znEZDnZ-8C_Wv-1" source="bqe97n8znEZDnZ-8C_Wv-14" target="bqe97n8znEZDnZ-8C_Wv-21">
          <mxGeometry relative="1" as="geometry">
            <mxPoint x="520" y="580" as="sourcePoint" />
            <mxPoint x="400" y="930" as="targetPoint" />
            <Array as="points">
              <mxPoint x="612" y="640" />
              <mxPoint x="420" y="640" />
            </Array>
          </mxGeometry>
        </mxCell>
        <mxCell id="bqe97n8znEZDnZ-8C_Wv-34" value="parent" style="edgeLabel;resizable=0;html=1;align=left;verticalAlign=bottom;" connectable="0" vertex="1" parent="bqe97n8znEZDnZ-8C_Wv-33">
          <mxGeometry x="-1" relative="1" as="geometry" />
        </mxCell>
        <mxCell id="bqe97n8znEZDnZ-8C_Wv-35" value="child" style="edgeLabel;resizable=0;html=1;align=right;verticalAlign=bottom;" connectable="0" vertex="1" parent="bqe97n8znEZDnZ-8C_Wv-33">
          <mxGeometry x="1" relative="1" as="geometry" />
        </mxCell>
        <mxCell id="bqe97n8znEZDnZ-8C_Wv-36" value="Use" style="endArrow=open;endSize=12;dashed=1;html=1;exitX=0.507;exitY=1.006;exitDx=0;exitDy=0;exitPerimeter=0;entryX=0.5;entryY=0;entryDx=0;entryDy=0;" edge="1" parent="bqe97n8znEZDnZ-8C_Wv-1" source="bqe97n8znEZDnZ-8C_Wv-5" target="bqe97n8znEZDnZ-8C_Wv-7">
          <mxGeometry width="160" relative="1" as="geometry">
            <mxPoint x="860" y="400" as="sourcePoint" />
            <mxPoint x="1310" y="630" as="targetPoint" />
          </mxGeometry>
        </mxCell>
        <mxCell id="bqe97n8znEZDnZ-8C_Wv-37" value="Use" style="endArrow=open;endSize=12;dashed=1;html=1;exitX=1.011;exitY=0.012;exitDx=0;exitDy=0;exitPerimeter=0;entryX=0.5;entryY=0;entryDx=0;entryDy=0;" edge="1" parent="bqe97n8znEZDnZ-8C_Wv-1" source="bqe97n8znEZDnZ-8C_Wv-14" target="bqe97n8znEZDnZ-8C_Wv-7">
          <mxGeometry width="160" relative="1" as="geometry">
            <mxPoint x="860" y="520" as="sourcePoint" />
            <mxPoint x="1200" y="740" as="targetPoint" />
          </mxGeometry>
        </mxCell>
        <mxCell id="bqe97n8znEZDnZ-8C_Wv-38" value="" style="endArrow=diamondThin;endFill=1;endSize=24;html=1;entryX=1.006;entryY=0.77;entryDx=0;entryDy=0;entryPerimeter=0;" edge="1" parent="bqe97n8znEZDnZ-8C_Wv-1" source="bqe97n8znEZDnZ-8C_Wv-3" target="bqe97n8znEZDnZ-8C_Wv-12">
          <mxGeometry width="160" relative="1" as="geometry">
            <mxPoint x="1040" y="300" as="sourcePoint" />
            <mxPoint x="1020" y="520" as="targetPoint" />
          </mxGeometry>
        </mxCell>
        <mxCell id="GIyzL88l0rtukJR0Nd0i-12" style="edgeStyle=orthogonalEdgeStyle;rounded=0;orthogonalLoop=1;jettySize=auto;html=1;entryX=0.5;entryY=0;entryDx=0;entryDy=0;exitX=0.5;exitY=1;exitDx=0;exitDy=0;" edge="1" parent="bqe97n8znEZDnZ-8C_Wv-1" source="GIyzL88l0rtukJR0Nd0i-2" target="GIyzL88l0rtukJR0Nd0i-9">
          <mxGeometry relative="1" as="geometry" />
        </mxCell>
        <mxCell id="GIyzL88l0rtukJR0Nd0i-13" style="edgeStyle=orthogonalEdgeStyle;rounded=0;orthogonalLoop=1;jettySize=auto;html=1;exitX=0.5;exitY=1;exitDx=0;exitDy=0;" edge="1" parent="bqe97n8znEZDnZ-8C_Wv-1" source="GIyzL88l0rtukJR0Nd0i-2" target="GIyzL88l0rtukJR0Nd0i-5">
          <mxGeometry relative="1" as="geometry" />
        </mxCell>
        <mxCell id="GIyzL88l0rtukJR0Nd0i-2" value="ffmpeg开始解析文件" style="ellipse;whiteSpace=wrap;html=1;aspect=fixed;" vertex="1" parent="bqe97n8znEZDnZ-8C_Wv-1">
          <mxGeometry x="2010" y="120" width="80" height="80" as="geometry" />
        </mxCell>
        <mxCell id="GIyzL88l0rtukJR0Nd0i-3" value="播放时数据的流向&lt;br&gt;" style="text;html=1;strokeColor=none;fillColor=none;align=center;verticalAlign=middle;whiteSpace=wrap;rounded=0;" vertex="1" parent="bqe97n8znEZDnZ-8C_Wv-1">
          <mxGeometry x="1820" y="170" width="130" height="20" as="geometry" />
        </mxCell>
        <mxCell id="GIyzL88l0rtukJR0Nd0i-24" style="edgeStyle=orthogonalEdgeStyle;rounded=0;orthogonalLoop=1;jettySize=auto;html=1;exitX=0.5;exitY=1;exitDx=0;exitDy=0;entryX=0.5;entryY=0;entryDx=0;entryDy=0;" edge="1" parent="bqe97n8znEZDnZ-8C_Wv-1" source="GIyzL88l0rtukJR0Nd0i-5" target="GIyzL88l0rtukJR0Nd0i-14">
          <mxGeometry relative="1" as="geometry" />
        </mxCell>
        <mxCell id="GIyzL88l0rtukJR0Nd0i-5" value="audio package queue" style="swimlane;" vertex="1" parent="bqe97n8znEZDnZ-8C_Wv-1">
          <mxGeometry x="1820" y="360" width="200" height="110" as="geometry" />
        </mxCell>
        <mxCell id="GIyzL88l0rtukJR0Nd0i-6" value="audio package" style="text;html=1;align=center;verticalAlign=middle;resizable=0;points=[];autosize=1;strokeColor=none;fillColor=none;" vertex="1" parent="GIyzL88l0rtukJR0Nd0i-5">
          <mxGeometry y="38" width="90" height="20" as="geometry" />
        </mxCell>
        <mxCell id="GIyzL88l0rtukJR0Nd0i-7" value="audio package" style="text;html=1;align=center;verticalAlign=middle;resizable=0;points=[];autosize=1;strokeColor=none;fillColor=none;" vertex="1" parent="GIyzL88l0rtukJR0Nd0i-5">
          <mxGeometry y="80" width="90" height="20" as="geometry" />
        </mxCell>
        <mxCell id="GIyzL88l0rtukJR0Nd0i-8" value="audio package" style="text;html=1;align=center;verticalAlign=middle;resizable=0;points=[];autosize=1;strokeColor=none;fillColor=none;" vertex="1" parent="bqe97n8znEZDnZ-8C_Wv-1">
          <mxGeometry x="1820" y="380" width="90" height="20" as="geometry" />
        </mxCell>
        <mxCell id="GIyzL88l0rtukJR0Nd0i-25" style="edgeStyle=orthogonalEdgeStyle;rounded=0;orthogonalLoop=1;jettySize=auto;html=1;exitX=0.5;exitY=1;exitDx=0;exitDy=0;entryX=0.5;entryY=0;entryDx=0;entryDy=0;" edge="1" parent="bqe97n8znEZDnZ-8C_Wv-1" source="GIyzL88l0rtukJR0Nd0i-9" target="GIyzL88l0rtukJR0Nd0i-17">
          <mxGeometry relative="1" as="geometry" />
        </mxCell>
        <mxCell id="GIyzL88l0rtukJR0Nd0i-9" value="video package queue" style="swimlane;" vertex="1" parent="bqe97n8znEZDnZ-8C_Wv-1">
          <mxGeometry x="2090" y="360" width="200" height="110" as="geometry" />
        </mxCell>
        <mxCell id="GIyzL88l0rtukJR0Nd0i-10" value="video package" style="text;html=1;align=center;verticalAlign=middle;resizable=0;points=[];autosize=1;strokeColor=none;fillColor=none;" vertex="1" parent="GIyzL88l0rtukJR0Nd0i-9">
          <mxGeometry y="38" width="90" height="20" as="geometry" />
        </mxCell>
        <mxCell id="GIyzL88l0rtukJR0Nd0i-11" value="audio package" style="text;html=1;align=center;verticalAlign=middle;resizable=0;points=[];autosize=1;strokeColor=none;fillColor=none;" vertex="1" parent="GIyzL88l0rtukJR0Nd0i-9">
          <mxGeometry y="80" width="90" height="20" as="geometry" />
        </mxCell>
        <mxCell id="GIyzL88l0rtukJR0Nd0i-20" style="edgeStyle=orthogonalEdgeStyle;rounded=0;orthogonalLoop=1;jettySize=auto;html=1;exitX=0.5;exitY=1;exitDx=0;exitDy=0;" edge="1" parent="bqe97n8znEZDnZ-8C_Wv-1" source="GIyzL88l0rtukJR0Nd0i-14" target="GIyzL88l0rtukJR0Nd0i-21">
          <mxGeometry relative="1" as="geometry">
            <mxPoint x="1920.4285714285716" y="800" as="targetPoint" />
          </mxGeometry>
        </mxCell>
        <mxCell id="GIyzL88l0rtukJR0Nd0i-26" style="edgeStyle=orthogonalEdgeStyle;rounded=0;orthogonalLoop=1;jettySize=auto;html=1;exitX=1;exitY=0.5;exitDx=0;exitDy=0;entryX=0;entryY=0.5;entryDx=0;entryDy=0;" edge="1" parent="bqe97n8znEZDnZ-8C_Wv-1" source="GIyzL88l0rtukJR0Nd0i-14" target="GIyzL88l0rtukJR0Nd0i-17">
          <mxGeometry relative="1" as="geometry" />
        </mxCell>
        <mxCell id="GIyzL88l0rtukJR0Nd0i-14" value="audio frame queue" style="swimlane;" vertex="1" parent="bqe97n8znEZDnZ-8C_Wv-1">
          <mxGeometry x="1820" y="580" width="200" height="110" as="geometry" />
        </mxCell>
        <mxCell id="GIyzL88l0rtukJR0Nd0i-15" value="audio frame" style="text;html=1;align=center;verticalAlign=middle;resizable=0;points=[];autosize=1;strokeColor=none;fillColor=none;" vertex="1" parent="GIyzL88l0rtukJR0Nd0i-14">
          <mxGeometry x="5" y="38" width="80" height="20" as="geometry" />
        </mxCell>
        <mxCell id="GIyzL88l0rtukJR0Nd0i-16" value="audio frame" style="text;html=1;align=center;verticalAlign=middle;resizable=0;points=[];autosize=1;strokeColor=none;fillColor=none;" vertex="1" parent="GIyzL88l0rtukJR0Nd0i-14">
          <mxGeometry x="5" y="80" width="80" height="20" as="geometry" />
        </mxCell>
        <mxCell id="GIyzL88l0rtukJR0Nd0i-22" style="edgeStyle=orthogonalEdgeStyle;rounded=0;orthogonalLoop=1;jettySize=auto;html=1;" edge="1" parent="bqe97n8znEZDnZ-8C_Wv-1" source="GIyzL88l0rtukJR0Nd0i-17" target="GIyzL88l0rtukJR0Nd0i-23">
          <mxGeometry relative="1" as="geometry">
            <mxPoint x="2190" y="780" as="targetPoint" />
          </mxGeometry>
        </mxCell>
        <mxCell id="GIyzL88l0rtukJR0Nd0i-17" value="video frame queue" style="swimlane;" vertex="1" parent="bqe97n8znEZDnZ-8C_Wv-1">
          <mxGeometry x="2090" y="580" width="200" height="110" as="geometry" />
        </mxCell>
        <mxCell id="GIyzL88l0rtukJR0Nd0i-18" value="video frame" style="text;html=1;align=center;verticalAlign=middle;resizable=0;points=[];autosize=1;strokeColor=none;fillColor=none;" vertex="1" parent="GIyzL88l0rtukJR0Nd0i-17">
          <mxGeometry x="60" y="38" width="80" height="20" as="geometry" />
        </mxCell>
        <mxCell id="GIyzL88l0rtukJR0Nd0i-19" value="audio frame" style="text;html=1;align=center;verticalAlign=middle;resizable=0;points=[];autosize=1;strokeColor=none;fillColor=none;" vertex="1" parent="GIyzL88l0rtukJR0Nd0i-17">
          <mxGeometry x="60" y="80" width="80" height="20" as="geometry" />
        </mxCell>
        <mxCell id="GIyzL88l0rtukJR0Nd0i-21" value="opensl es 队列音频播放开始" style="rounded=0;whiteSpace=wrap;html=1;" vertex="1" parent="bqe97n8znEZDnZ-8C_Wv-1">
          <mxGeometry x="1860.4285714285716" y="770" width="120" height="60" as="geometry" />
        </mxCell>
        <mxCell id="GIyzL88l0rtukJR0Nd0i-23" value="将视频帧数据绘制到native_windows上" style="rounded=0;whiteSpace=wrap;html=1;" vertex="1" parent="bqe97n8znEZDnZ-8C_Wv-1">
          <mxGeometry x="2130" y="770" width="120" height="60" as="geometry" />
        </mxCell>
        <mxCell id="GIyzL88l0rtukJR0Nd0i-27" value="在解码的时候进行同步" style="text;html=1;align=center;verticalAlign=middle;resizable=0;points=[];autosize=1;strokeColor=none;fillColor=none;" vertex="1" parent="bqe97n8znEZDnZ-8C_Wv-1">
          <mxGeometry x="1990" y="610" width="140" height="20" as="geometry" />
        </mxCell>
      </root>
    </mxGraphModel>
  </diagram>
</mxfile>
